<svg width="25" height="25" fill="none" xmlns="http://www.w3.org/2000/svg"><path d="M17.087 13.98H5.937a.965.965 0 0 1-.712-.288.972.972 0 0 1-.288-.712c0-.283.096-.52.288-.712a.973.973 0 0 1 .712-.288h11.15l-2.85-2.85a.918.918 0 0 1-.288-.7c.008-.267.104-.5.288-.7.2-.2.438-.304.713-.312a.932.932 0 0 1 .712.287l4.575 4.575c.1.1.171.208.213.325.042.117.063.242.062.375 0 .133-.02.258-.062.375a.868.868 0 0 1-.213.325l-4.575 4.575c-.2.2-.437.296-.712.288a1.019 1.019 0 0 1-.713-.313c-.183-.2-.279-.433-.288-.7a.913.913 0 0 1 .288-.7l2.85-2.85Z" fill="#000"/></svg>