<svg width="24" height="25" fill="none" xmlns="http://www.w3.org/2000/svg"><path d="m12 13.65-4.9 4.9a.948.948 0 0 1-.7.275.948.948 0 0 1-.7-.275.948.948 0 0 1-.275-.7c0-.284.092-.517.275-.7l4.9-4.9-4.9-4.9a.948.948 0 0 1-.275-.7c0-.284.092-.517.275-.7a.948.948 0 0 1 .7-.275c.283 0 .517.091.7.275l4.9 4.9 4.9-4.9a.948.948 0 0 1 .7-.275c.283 0 .517.091.7.275a.948.948 0 0 1 .275.7.948.948 0 0 1-.275.7l-4.9 4.9 4.9 4.9a.948.948 0 0 1 .275.7.948.948 0 0 1-.275.7.948.948 0 0 1-.7.275.948.948 0 0 1-.7-.275l-4.9-4.9Z" fill="#000"/></svg>