<svg width="25" height="25" fill="none" xmlns="http://www.w3.org/2000/svg"><path d="M12.175 21.305c-.233 0-.47-.042-.712-.125a1.664 1.664 0 0 1-.638-.4L9.1 19.205a68.542 68.542 0 0 1-4.788-4.812c-1.425-1.591-2.138-3.346-2.137-5.263 0-1.567.525-2.875 1.575-3.925C4.8 4.155 6.108 3.63 7.675 3.63a5.72 5.72 0 0 1 2.5.562c.783.375 1.45.887 2 1.538a5.95 5.95 0 0 1 2-1.537 5.732 5.732 0 0 1 2.5-.563c1.567 0 2.875.525 3.925 1.575 1.05 1.05 1.575 2.358 1.575 3.925 0 1.916-.708 3.675-2.125 5.275a59.847 59.847 0 0 1-4.825 4.825l-1.7 1.55a1.654 1.654 0 0 1-.637.4 2.176 2.176 0 0 1-.713.125Zm-.95-13.575c-.483-.683-1-1.204-1.55-1.563s-1.217-.538-2-.537c-1 0-1.833.333-2.5 1s-1 1.5-1 2.5c0 .867.308 1.788.925 2.763a19.02 19.02 0 0 0 2.213 2.837 38.261 38.261 0 0 0 2.65 2.575c.909.8 1.646 1.458 2.212 1.975.567-.517 1.304-1.175 2.213-1.975s1.792-1.658 2.65-2.575a19.124 19.124 0 0 0 2.212-2.837c.617-.975.925-1.896.925-2.763 0-1-.333-1.833-1-2.5s-1.5-1-2.5-1c-.783 0-1.45.18-2 .538-.55.359-1.067.88-1.55 1.562a1.137 1.137 0 0 1-.95.5 1.139 1.139 0 0 1-.95-.5Z" fill="#000"/></svg>