<svg width="24" height="24" fill="none" xmlns="http://www.w3.org/2000/svg"><path d="M4 18a.965.965 0 0 1-.712-.288A.972.972 0 0 1 3 17c0-.283.096-.52.288-.712A.973.973 0 0 1 4 16h16c.283 0 .521.096.713.288.192.192.288.43.287.712a.968.968 0 0 1-.288.713A.964.964 0 0 1 20 18H4Zm0-5a.965.965 0 0 1-.712-.288A.972.972 0 0 1 3 12c0-.283.096-.52.288-.712A.973.973 0 0 1 4 11h16c.283 0 .521.096.713.288.192.192.288.43.287.712a.968.968 0 0 1-.288.713A.964.964 0 0 1 20 13H4Zm0-5a.965.965 0 0 1-.712-.288A.972.972 0 0 1 3 7c0-.283.096-.52.288-.712A.972.972 0 0 1 4 6h16c.283 0 .521.096.713.288.192.192.288.43.287.712a.968.968 0 0 1-.288.713A.964.964 0 0 1 20 8H4Z" fill="#201F22"/></svg>