<svg width="25" height="25" fill="none" xmlns="http://www.w3.org/2000/svg"><path d="M9.787 16.894c-1.816 0-3.354-.63-4.612-1.888-1.258-1.26-1.887-2.796-1.888-4.612 0-1.817.63-3.354 1.888-4.612 1.26-1.258 2.796-1.888 4.612-1.888 1.817 0 3.355.629 4.613 1.888 1.26 1.258 1.888 2.796 1.888 4.612a6.096 6.096 0 0 1-1.3 3.8l5.6 5.6a.948.948 0 0 1 .274.7.949.949 0 0 1-.274.7.949.949 0 0 1-.7.275.948.948 0 0 1-.7-.275l-5.6-5.6a6.096 6.096 0 0 1-3.8 1.3Zm0-2c1.25 0 2.313-.438 3.188-1.312.876-.875 1.313-1.938 1.313-3.188 0-1.25-.438-2.313-1.313-3.187-.874-.875-1.937-1.313-3.188-1.313-1.25 0-2.312.437-3.187 1.313-.874.875-1.312 1.937-1.313 3.187 0 1.25.438 2.312 1.313 3.188.876.875 1.938 1.312 3.187 1.312Z" fill="#000"/></svg>